<?xml version="1.0" encoding="UTF-8"?>
<!--
  XPERT Dairy Systems - Icon Sprite
  Usage: <svg width="64" height="64"><use href="xds-sprite.svg#pump-repair"/></svg>
  Or inline the sprite once and reference: <use href="#pump-repair"/>
-->
<svg xmlns="http://www.w3.org/2000/svg" style="display:none">

  <symbol id="pump-repair" viewBox="0 0 100 100">
    <g fill="none" stroke="#1E5FAE" stroke-width="3" stroke-linecap="round" stroke-linejoin="round">
      <rect x="30" y="12" width="28" height="22" rx="2" fill="#DBEAFE"/>
      <line x1="37" y1="18" x2="37" y2="28"/>
      <line x1="44" y1="18" x2="44" y2="28"/>
      <line x1="51" y1="18" x2="51" y2="28"/>
      <line x1="36" y1="34" x2="52" y2="34"/>
      <line x1="44" y1="34" x2="44" y2="40"/>
      <circle cx="44" cy="62" r="22" fill="#DBEAFE"/>
      <path d="M44 48 a14 14 0 1 0 12 20"/>
      <path d="M66 58 L84 58 L84 42"/>
      <line x1="80" y1="42" x2="88" y2="42"/>
    </g>
  </symbol>

  <symbol id="separator" viewBox="0 0 100 100">
    <g fill="none" stroke="#1E5FAE" stroke-width="3" stroke-linecap="round" stroke-linejoin="round">
      <line x1="50" y1="10" x2="50" y2="22"/>
      <path d="M40 14 L60 14"/>
      <path d="M20 22 Q12 22 12 32 L12 70 Q12 80 22 80 L78 80 Q88 80 88 70 L88 32 Q88 22 78 22 Z" fill="#DBEAFE"/>
      <line x1="20" y1="40" x2="80" y2="40" stroke-width="2"/>
      <line x1="20" y1="50" x2="80" y2="50" stroke-width="2"/>
      <line x1="20" y1="60" x2="80" y2="60" stroke-width="2"/>
      <path d="M88 56 L96 56"/>
      <path d="M50 80 L50 92"/>
      <line x1="42" y1="92" x2="58" y2="92"/>
    </g>
  </symbol>

  <symbol id="agitator" viewBox="0 0 100 100">
    <g fill="none" stroke="#1E5FAE" stroke-width="3" stroke-linecap="round" stroke-linejoin="round">
      <rect x="34" y="10" width="32" height="22" rx="2" fill="#DBEAFE"/>
      <line x1="42" y1="16" x2="42" y2="26"/>
      <line x1="50" y1="16" x2="50" y2="26"/>
      <line x1="58" y1="16" x2="58" y2="26"/>
      <line x1="38" y1="32" x2="62" y2="32"/>
      <line x1="50" y1="32" x2="50" y2="70"/>
      <line x1="50" y1="70" x2="28" y2="84"/>
      <line x1="50" y1="70" x2="72" y2="84"/>
      <line x1="50" y1="70" x2="32" y2="58"/>
      <line x1="50" y1="70" x2="68" y2="58"/>
      <circle cx="50" cy="70" r="4" fill="#1E5FAE"/>
      <circle cx="28" cy="84" r="2.5" fill="#1E5FAE" stroke="none"/>
      <circle cx="72" cy="84" r="2.5" fill="#1E5FAE" stroke="none"/>
      <circle cx="32" cy="58" r="2.5" fill="#1E5FAE" stroke="none"/>
      <circle cx="68" cy="58" r="2.5" fill="#1E5FAE" stroke="none"/>
    </g>
  </symbol>

  <symbol id="fabrication" viewBox="0 0 100 100">
    <g fill="none" stroke="#1E5FAE" stroke-width="3" stroke-linecap="round" stroke-linejoin="round">
      <rect x="12" y="68" width="76" height="14" rx="1" fill="#DBEAFE"/>
      <line x1="12" y1="75" x2="88" y2="75" stroke-width="2"/>
      <line x1="78" y1="20" x2="56" y2="48"/>
      <line x1="76" y1="14" x2="86" y2="22"/>
      <line x1="80" y1="10" x2="90" y2="18"/>
      <circle cx="54" cy="50" r="2.5" fill="#1E5FAE" stroke="none"/>
    </g>
    <g stroke="#F59E0B" stroke-width="2.8" stroke-linecap="round" fill="none">
      <line x1="48" y1="58" x2="44" y2="54"/>
      <line x1="50" y1="62" x2="48" y2="68"/>
      <line x1="58" y1="60" x2="62" y2="64"/>
      <line x1="42" y1="60" x2="36" y2="58"/>
      <line x1="54" y1="66" x2="56" y2="70"/>
    </g>
    <circle cx="44" cy="64" r="1.8" fill="#F59E0B"/>
    <circle cx="62" cy="56" r="1.8" fill="#F59E0B"/>
    <circle cx="38" cy="66" r="1.4" fill="#F59E0B"/>
  </symbol>

  <symbol id="emergency-service" viewBox="0 0 100 100">
    <g fill="none" stroke="#1E5FAE" stroke-width="3" stroke-linecap="round" stroke-linejoin="round">
      <rect x="12" y="38" width="42" height="32" rx="2" fill="#DBEAFE"/>
      <path d="M54 70 L54 38 L70 38 L82 50 L82 70 Z" fill="#DBEAFE"/>
      <path d="M58 42 L58 50 L78 50" stroke-width="2.5"/>
      <rect x="20" y="44" width="26" height="10" fill="white"/>
      <line x1="6" y1="80" x2="94" y2="80" stroke-width="2.5"/>
      <circle cx="26" cy="78" r="7" fill="#1E5FAE"/>
      <circle cx="26" cy="78" r="2.5" fill="white" stroke="white"/>
      <circle cx="70" cy="78" r="7" fill="#1E5FAE"/>
      <circle cx="70" cy="78" r="2.5" fill="white" stroke="white"/>
    </g>
    <g stroke="#F59E0B" stroke-width="2.5" stroke-linecap="round" fill="none">
      <circle cx="63" cy="30" r="4" fill="#F59E0B" stroke="#1E5FAE" stroke-width="2.5"/>
      <line x1="63" y1="22" x2="63" y2="18"/>
      <line x1="55" y1="28" x2="51" y2="25"/>
      <line x1="71" y1="28" x2="75" y2="25"/>
    </g>
  </symbol>

  <symbol id="installation" viewBox="0 0 100 100">
    <g fill="#DBEAFE" stroke="#1E5FAE" stroke-width="3" stroke-linecap="round" stroke-linejoin="round">
      <rect x="46" y="10" width="8" height="10" rx="1"/>
      <rect x="46" y="80" width="8" height="10" rx="1"/>
      <rect x="10" y="46" width="10" height="8" rx="1"/>
      <rect x="80" y="46" width="10" height="8" rx="1"/>
      <g transform="rotate(45 50 50)">
        <rect x="46" y="10" width="8" height="10" rx="1"/>
        <rect x="46" y="80" width="8" height="10" rx="1"/>
        <rect x="10" y="46" width="10" height="8" rx="1"/>
        <rect x="80" y="46" width="10" height="8" rx="1"/>
      </g>
      <circle cx="50" cy="50" r="24"/>
    </g>
    <path d="M38 52 L46 60 L62 40" stroke="#1E5FAE" stroke-width="4.5" stroke-linecap="round" stroke-linejoin="round" fill="none"/>
  </symbol>

  <symbol id="preventative-maintenance" viewBox="0 0 100 100">
    <g fill="none" stroke="#1E5FAE" stroke-width="3" stroke-linecap="round" stroke-linejoin="round">
      <rect x="14" y="22" width="72" height="66" rx="4" fill="#DBEAFE"/>
      <rect x="14" y="22" width="72" height="14" fill="#1E5FAE" stroke="#1E5FAE"/>
      <line x1="32" y1="14" x2="32" y2="28" stroke-width="3.5"/>
      <line x1="68" y1="14" x2="68" y2="28" stroke-width="3.5"/>
      <line x1="14" y1="48" x2="86" y2="48" stroke-width="2"/>
      <line x1="14" y1="64" x2="86" y2="64" stroke-width="2"/>
      <line x1="32" y1="36" x2="32" y2="88" stroke-width="2"/>
      <line x1="50" y1="36" x2="50" y2="88" stroke-width="2"/>
      <line x1="68" y1="36" x2="68" y2="88" stroke-width="2"/>
    </g>
    <rect x="32" y="48" width="18" height="16" fill="#F59E0B"/>
    <path d="M36 56 L40 60 L48 50" stroke="white" stroke-width="3" stroke-linecap="round" stroke-linejoin="round" fill="none"/>
  </symbol>

  <symbol id="safety-compliance" viewBox="0 0 100 100">
    <g fill="none" stroke="#1E5FAE" stroke-width="3" stroke-linecap="round" stroke-linejoin="round">
      <path d="M22 64 Q22 28 50 28 Q78 28 78 64 Z" fill="#DBEAFE"/>
      <path d="M30 60 Q30 36 50 30" stroke-width="2.5"/>
      <path d="M70 60 Q70 36 50 30" stroke-width="2.5"/>
      <line x1="50" y1="30" x2="50" y2="64"/>
      <path d="M12 64 L88 64 L88 72 L12 72 Z" fill="#1E5FAE"/>
      <rect x="44" y="42" width="12" height="14" rx="1" fill="white"/>
      <path d="M48 48 L50 51 L54 45" stroke="#1E5FAE" stroke-width="2.5" stroke-linecap="round" stroke-linejoin="round" fill="none"/>
    </g>
  </symbol>

  <symbol id="equipment-sales" viewBox="0 0 100 100">
    <g fill="none" stroke="#1E5FAE" stroke-width="3" stroke-linecap="round" stroke-linejoin="round">
      <path d="M50 22 L80 36 L80 68 L50 82 L20 68 L20 36 Z" fill="#DBEAFE"/>
      <path d="M20 36 L50 50 L80 36"/>
      <line x1="50" y1="50" x2="50" y2="82"/>
      <path d="M35 29 L65 43" stroke="#F59E0B" stroke-width="3.5"/>
      <path d="M50 22 L50 50" stroke="#F59E0B" stroke-width="3.5" opacity="0.4"/>
      <rect x="32" y="56" width="20" height="12" fill="white"/>
      <line x1="36" y1="61" x2="48" y2="61" stroke-width="2"/>
      <line x1="36" y1="65" x2="44" y2="65" stroke-width="2"/>
    </g>
  </symbol>

  <symbol id="parts-stocking" viewBox="0 0 100 100">
    <g fill="none" stroke="#1E5FAE" stroke-width="3" stroke-linecap="round" stroke-linejoin="round">
      <line x1="10" y1="18" x2="90" y2="18"/>
      <line x1="14" y1="18" x2="14" y2="88"/>
      <line x1="86" y1="18" x2="86" y2="88"/>
      <line x1="14" y1="48" x2="86" y2="48"/>
      <line x1="14" y1="78" x2="86" y2="78"/>
      <rect x="22" y="26" width="16" height="22" fill="#DBEAFE"/>
      <rect x="42" y="30" width="14" height="18" fill="#1E5FAE" stroke="#1E5FAE"/>
      <rect x="60" y="26" width="20" height="22" fill="#DBEAFE"/>
      <rect x="22" y="56" width="20" height="22" fill="#DBEAFE"/>
      <rect x="46" y="60" width="14" height="18" fill="#F59E0B" stroke="#F59E0B"/>
      <rect x="64" y="56" width="16" height="22" fill="#DBEAFE"/>
      <line x1="10" y1="88" x2="90" y2="88"/>
    </g>
  </symbol>

  <symbol id="warranty-support" viewBox="0 0 100 100">
    <g fill="none" stroke="#1E5FAE" stroke-width="3" stroke-linecap="round" stroke-linejoin="round">
      <path d="M50 10 L82 22 Q82 60 50 88 Q18 60 18 22 Z" fill="#DBEAFE"/>
      <path d="M50 18 L74 27 Q74 58 50 80 Q26 58 26 27 Z" fill="none" stroke-width="1.5" opacity="0.5"/>
      <path d="M34 50 L46 62 L66 38" stroke-width="5" stroke-linecap="round" stroke-linejoin="round"/>
    </g>
  </symbol>

  <symbol id="location-pin" viewBox="0 0 100 100">
    <g stroke="#1E5FAE" stroke-width="3" stroke-linecap="round" stroke-linejoin="round">
      <path d="M50 10 Q74 10 74 36 Q74 58 50 90 Q26 58 26 36 Q26 10 50 10 Z" fill="#1E5FAE"/>
      <circle cx="50" cy="36" r="10" fill="white" stroke="white"/>
      <circle cx="50" cy="36" r="4" fill="#F59E0B" stroke="#F59E0B"/>
    </g>
  </symbol>

</svg>
